<svg version="1.1" id="Layer_1" xmlns="http://www.w3.org/2000/svg" xmlns:xlink="http://www.w3.org/1999/xlink" x="0px" y="0px" viewBox="0 0 66 62.5" xml:space="preserve"><style type="text/css"> .st0zcsd42342sdsae2342ed2324edf{stroke-width:0.4px!important} </style><path class="st0zcsd42342sdsae2342ed2324edf" d="M33,4C18,4,5.7,16.2,5.7,31.2c0,0.3,0,0.5,0,0.8c0,1.1,0.9,1.9,1.9,1.9c0.1,0,0.1,0,0.2,0c0.5,0,1-0.2,1.4-0.6 c0.4-0.4,0.6-0.9,0.5-1.4c0-0.2,0-0.4,0-0.7C9.7,18.4,20.1,7.9,33,7.9c12.9,0,23.3,10.5,23.3,23.3S45.9,54.6,33,54.6 c-7.9,0-15.2-3.9-19.5-10.5l9.9-9.8l5.6,5.6c0.4,0.4,0.9,0.6,1.4,0.6s1.1-0.2,1.4-0.6l9.1-9.1v1.8c0,1.1,0.8,2,1.9,2s1.9-0.9,1.9-2 v-6c0-1.6-0.7-2.4-2.4-2.4h-6.2c-1.1,0-2,0.8-2,1.9s0.9,1.9,2,1.9h2.1l-7.9,7.7l-5.6-5.7c-0.4-0.4-0.9-0.6-1.4-0.6 c-0.5,0-1,0.2-1.4,0.6L9.6,42.4C9,43,8.8,44,9.3,44.7c4.8,8.5,13.9,13.8,23.7,13.8c15,0,27.3-12.2,27.3-27.3C60.3,16.2,48,4,33,4z"></path></svg>
