<svg xmlns="http://www.w3.org/2000/svg" viewBox="0 0 32 31.8"><defs><style>.\32 cd1b099-195d-4ddb-b77a-2a38e7b53ab6{fill:#fff;}.\33 3b72268-074a-4128-85ba-0115fa1de72b{fill:#03935c;}</style></defs><title>Thumb down</title><g id="58fce2cd-e3e3-48ed-bc0d-a831b2c84c8d" data-name="Layer 2"><g id="93b788c9-deaa-4837-a9a6-74d61de60b6a" data-name="Layer 1"><path class="2cd1b099-195d-4ddb-b77a-2a38e7b53ab6" d="M28,11.8H21v-4c0-3.1-1.9-6.7-5.4-7.7a1.94,1.94,0,0,0-1.8.3A1.94,1.94,0,0,0,13,2V7.5L8,13.9V29.4l1.9,1A14.34,14.34,0,0,0,16,31.8H26a4.6,4.6,0,0,0,4.5-3.9l1.5-12v-.1A4,4,0,0,0,28,11.8Z"></path><path class="33b72268-074a-4128-85ba-0115fa1de72b" d="M5,12.8H1a.94.94,0,0,0-1,1v17a.94.94,0,0,0,1,1H5a.94.94,0,0,0,1-1v-17A.94.94,0,0,0,5,12.8Z"></path></g></g></svg>
